<?xml version="1.0" encoding="UTF-8"?>
<svg width="35.717mm" height="48mm" version="1.1" viewBox="0 0 35.717 48" xmlns="http://www.w3.org/2000/svg">
 <defs>
  <radialGradient id="paint0_radial_5002_11731" cx="0" cy="0" r="1" gradientTransform="matrix(25.995 0 0 26.048 61.545 132.38)" gradientUnits="userSpaceOnUse">
   <stop stop-color="#DAD8D8" offset="0"/>
   <stop stop-color="#DBD9D9" offset=".59"/>
   <stop stop-color="#E1E0E0" offset=".8"/>
   <stop stop-color="#ECECEC" offset=".95"/>
   <stop stop-color="#F2F2F2" offset="1"/>
  </radialGradient>
  <radialGradient id="paint1_radial_5002_11731" cx="0" cy="0" r="1" gradientTransform="matrix(18.896 10.289 -12.425 22.91 49.554 148.94)" gradientUnits="userSpaceOnUse">
   <stop stop-color="#DAD8D8" stop-opacity="0" offset="0"/>
   <stop stop-color="#D1CFCF" stop-opacity=".04" offset=".16"/>
   <stop stop-color="#CFCDCD" stop-opacity=".07" offset=".21"/>
   <stop stop-color="#CCCACA" stop-opacity=".13" offset=".25"/>
   <stop stop-color="#C7C5C5" stop-opacity=".25" offset=".29"/>
   <stop stop-color="#C0BEBE" stop-opacity=".41" offset=".33"/>
   <stop stop-color="#B7B5B5" stop-opacity=".62" offset=".37"/>
   <stop stop-color="#ACAAAA" stop-opacity=".87" offset=".41"/>
   <stop stop-color="#A6A4A4" offset=".43"/>
   <stop stop-color="#F2F2F2" offset=".52"/>
   <stop stop-color="#F3F3F3" offset=".59"/>
   <stop stop-color="white" offset=".61"/>
   <stop stop-color="#E9E8E8" offset=".63"/>
   <stop stop-color="#E6E5E5" stop-opacity=".82" offset=".66"/>
   <stop stop-color="#E3E1E1" stop-opacity=".61" offset=".71"/>
   <stop stop-color="#E0DEDE" stop-opacity=".42" offset=".75"/>
   <stop stop-color="#DEDCDC" stop-opacity=".27" offset=".8"/>
   <stop stop-color="#DCDADA" stop-opacity=".15" offset=".84"/>
   <stop stop-color="#DBD9D9" stop-opacity=".07" offset=".89"/>
   <stop stop-color="#DAD8D8" stop-opacity=".02" offset=".94"/>
   <stop stop-color="#DAD8D8" stop-opacity="0" offset=".99"/>
  </radialGradient>
  <radialGradient id="paint2_radial_5002_11731" cx="0" cy="0" r="1" gradientTransform="matrix(6.6754 0 0 6.6889 63.341 151.67)" gradientUnits="userSpaceOnUse">
   <stop stop-color="#F2F2F2" offset="0"/>
   <stop stop-color="#DAD8D8" offset=".62"/>
   <stop stop-color="#A6A4A4" offset="1"/>
  </radialGradient>
  <radialGradient id="paint3_radial_5002_11731" cx="0" cy="0" r="1" gradientTransform="matrix(8.5141 0 0 8.5312 63.375 132.42)" gradientUnits="userSpaceOnUse">
   <stop stop-color="#A6A4A4" offset="0"/>
   <stop stop-color="#817E7D" offset=".5"/>
   <stop stop-color="#363432" offset="1"/>
  </radialGradient>
  <radialGradient id="paint4_radial_5002_11731" cx="0" cy="0" r="1" gradientTransform="matrix(22.058 0 0 22.103 67.345 143.28)" gradientUnits="userSpaceOnUse">
   <stop stop-color="#F2F2F2" offset="0"/>
   <stop stop-color="#DAD8D8" offset=".37"/>
   <stop stop-color="#A6A4A4" offset=".72"/>
   <stop stop-color="#363432" offset="1"/>
  </radialGradient>
  <radialGradient id="paint5_radial_5002_11731" cx="0" cy="0" r="1" gradientTransform="matrix(13.517 0 0 13.544 67.064 137.91)" gradientUnits="userSpaceOnUse">
   <stop stop-color="#DAD8D8" offset="0"/>
   <stop stop-color="#817E7D" offset=".5"/>
   <stop stop-color="#363432" offset="1"/>
  </radialGradient>
  <radialGradient id="paint6_radial_5002_11731" cx="0" cy="0" r="1" gradientTransform="matrix(9.8939 0 0 9.9138 64.721 135.45)" gradientUnits="userSpaceOnUse">
   <stop stop-color="#A6A4A4" offset="0"/>
   <stop stop-color="#817E7D" offset=".5"/>
   <stop stop-color="#363432" offset="1"/>
  </radialGradient>
  <radialGradient id="paint7_radial_5002_11731" cx="0" cy="0" r="1" gradientTransform="matrix(12.261 0 0 12.286 66.503 137.11)" gradientUnits="userSpaceOnUse">
   <stop stop-color="#DAD8D8" offset="0"/>
   <stop stop-color="#A6A4A4" offset=".3"/>
   <stop stop-color="#817E7D" offset=".7"/>
   <stop stop-color="#363432" offset="1"/>
  </radialGradient>
  <radialGradient id="paint8_radial_5002_11731" cx="0" cy="0" r="1" gradientTransform="matrix(6.292 0 0 6.3046 67.218 130.38)" gradientUnits="userSpaceOnUse">
   <stop stop-color="#A6A4A4" offset="0"/>
   <stop stop-color="#817E7D" offset=".2"/>
   <stop stop-color="#363432" offset="1"/>
  </radialGradient>
  <radialGradient id="paint9_radial_5002_11731" cx="0" cy="0" r="1" gradientTransform="matrix(25.479 0 0 25.53 55.404 144.26)" gradientUnits="userSpaceOnUse">
   <stop stop-color="#DAD8D8" offset="0"/>
   <stop stop-color="#A6A4A4" offset=".3"/>
   <stop stop-color="#817E7D" offset=".7"/>
   <stop stop-color="#363432" offset="1"/>
  </radialGradient>
  <radialGradient id="paint10_radial_5002_11731" cx="0" cy="0" r="1" gradientTransform="matrix(13.647 0 0 13.674 72.912 154.37)" gradientUnits="userSpaceOnUse">
   <stop stop-color="#DAD8D8" offset="0"/>
   <stop stop-color="#A6A4A4" offset=".3"/>
   <stop stop-color="#817E7D" offset=".7"/>
   <stop stop-color="#363432" offset="1"/>
  </radialGradient>
  <radialGradient id="paint11_radial_5002_11731" cx="0" cy="0" r="1" gradientTransform="matrix(20.585 0 0 20.626 68.22 126.46)" gradientUnits="userSpaceOnUse">
   <stop stop-color="#DAD8D8" stop-opacity="0" offset="0"/>
   <stop stop-color="#D1CFCF" stop-opacity=".04" offset=".08"/>
   <stop stop-color="#C9C7C7" stop-opacity=".04" offset=".1"/>
   <stop stop-color="#A6A4A4" stop-opacity="0" offset=".27"/>
   <stop stop-color="#F2F2F2" offset=".46"/>
   <stop stop-color="#F0F0F0" offset=".51"/>
   <stop stop-color="#EAE9E9" offset=".53"/>
   <stop stop-color="#DFDDDD" offset=".54"/>
   <stop stop-color="#DAD8D8" offset=".55"/>
   <stop stop-color="#DAD8D8" offset=".67"/>
   <stop stop-color="#F2F2F2" offset=".8"/>
   <stop stop-color="#F2F2F2" stop-opacity="0" offset=".99"/>
  </radialGradient>
  <radialGradient id="paint12_radial_5002_11731" cx="0" cy="0" r="1" gradientTransform="matrix(14.22 0 0 14.249 66.907 122.39)" gradientUnits="userSpaceOnUse">
   <stop stop-color="#DAD8D8" stop-opacity="0" offset="0"/>
   <stop stop-color="#D1CFCF" stop-opacity=".04" offset=".17"/>
   <stop stop-color="#C4C2C2" stop-opacity=".32" offset=".19"/>
   <stop stop-color="#B7B5B5" stop-opacity=".61" offset=".23"/>
   <stop stop-color="#ADABAB" stop-opacity=".82" offset=".25"/>
   <stop stop-color="#A8A6A6" stop-opacity=".95" offset=".28"/>
   <stop stop-color="#A6A4A4" offset=".29"/>
   <stop stop-color="#F2F2F2" offset=".51"/>
   <stop stop-color="#F3F3F3" offset=".54"/>
   <stop stop-color="white" offset=".55"/>
   <stop stop-color="#DAD8D8" offset=".71"/>
   <stop stop-color="#DAD8D8" stop-opacity="0" offset=".99"/>
  </radialGradient>
  <radialGradient id="paint13_radial_5002_11731" cx="0" cy="0" r="1" gradientTransform="matrix(9.8154 0 0 9.8351 67.843 126.84)" gradientUnits="userSpaceOnUse">
   <stop stop-color="#F2F2F2" offset=".31"/>
   <stop stop-color="#DAD8D8" offset=".57"/>
   <stop stop-color="#817E7D" stop-opacity=".5" offset="1"/>
  </radialGradient>
  <radialGradient id="paint14_radial_5002_11731" cx="0" cy="0" r="1" gradientTransform="matrix(17.652 -3.5632 2.9871 14.857 63.362 134.02)" gradientUnits="userSpaceOnUse">
   <stop stop-color="#DAD8D8" stop-opacity="0" offset="0"/>
   <stop stop-color="#D1CFCF" stop-opacity=".04" offset=".16"/>
   <stop stop-color="#BFBDBD" stop-opacity=".03" offset=".42"/>
   <stop stop-color="#A6A4A4" stop-opacity="0" offset=".56"/>
   <stop stop-color="#DAD8D8" offset=".61"/>
   <stop stop-color="#DEDCDC" stop-opacity=".71" offset=".63"/>
   <stop stop-color="#E2E0E0" stop-opacity=".46" offset=".64"/>
   <stop stop-color="#E5E3E3" stop-opacity=".26" offset=".66"/>
   <stop stop-color="#E7E6E6" stop-opacity=".12" offset=".67"/>
   <stop stop-color="#E8E7E7" stop-opacity=".03" offset=".68"/>
   <stop stop-color="#E9E8E8" stop-opacity=".06" offset=".69"/>
   <stop stop-color="#E9E8E8" stop-opacity=".25" offset=".7"/>
   <stop stop-color="#E9E8E8" stop-opacity=".4" offset=".71"/>
   <stop stop-color="#E9E8E8" stop-opacity=".58" offset=".72"/>
   <stop stop-color="#E9E8E8" stop-opacity=".6" offset=".73"/>
   <stop stop-color="#E7E6E6" stop-opacity=".54" offset=".74"/>
   <stop stop-color="#E3E2E2" stop-opacity=".38" offset=".78"/>
   <stop stop-color="#E0DEDE" stop-opacity=".24" offset=".81"/>
   <stop stop-color="#DDDBDB" stop-opacity=".13" offset=".85"/>
   <stop stop-color="#DBD9D9" stop-opacity=".06" offset=".89"/>
   <stop stop-color="#DAD8D8" stop-opacity=".01" offset=".94"/>
   <stop stop-color="#DAD8D8" stop-opacity="0" offset=".99"/>
  </radialGradient>
  <radialGradient id="paint15_radial_5002_11731" cx="0" cy="0" r="1" gradientTransform="matrix(13.462 -9.5227 7.2227 10.252 62.913 134.29)" gradientUnits="userSpaceOnUse">
   <stop stop-color="#DAD8D8" stop-opacity="0" offset="0"/>
   <stop stop-color="#D1CFCF" stop-opacity=".04" offset=".16"/>
   <stop stop-color="#CFCDCD" stop-opacity=".07" offset=".2"/>
   <stop stop-color="#CCCACA" stop-opacity=".13" offset=".24"/>
   <stop stop-color="#C7C5C5" stop-opacity=".25" offset=".28"/>
   <stop stop-color="#C0BEBE" stop-opacity=".41" offset=".31"/>
   <stop stop-color="#B7B5B5" stop-opacity=".62" offset=".35"/>
   <stop stop-color="#ACAAAA" stop-opacity=".87" offset=".38"/>
   <stop stop-color="#A6A4A4" offset=".4"/>
   <stop stop-color="#F2F2F2" offset=".56"/>
   <stop stop-color="#F3F3F3" offset=".6"/>
   <stop stop-color="#FAFAFA" offset=".61"/>
   <stop stop-color="white" offset=".62"/>
   <stop stop-color="#EBEAEA" offset=".63"/>
   <stop stop-color="#DAD8D8" offset=".65"/>
   <stop stop-color="#DEDCDC" stop-opacity=".71" offset=".66"/>
   <stop stop-color="#E2E0E0" stop-opacity=".46" offset=".68"/>
   <stop stop-color="#E5E3E3" stop-opacity=".26" offset=".69"/>
   <stop stop-color="#E7E6E6" stop-opacity=".12" offset=".71"/>
   <stop stop-color="#E9E8E8" stop-opacity="0" offset=".72"/>
   <stop stop-color="#DAD8D8" stop-opacity="0" offset=".99"/>
  </radialGradient>
 </defs>
 <g transform="translate(-47.944 -123.02)">
  <g transform="matrix(.35278 0 0 -.35278 47.944 164.16)">
   <path d="m0 0h2.878v3.34h2.071l0.737 2.02h-2.808v1.872h3.487l0.734 2.014h-7.099v-9.246" fill="#181210"/>
  </g>
  <g transform="matrix(.35278 0 0 -.35278 55.76 163.09)">
   <path d="m0 0 1.112 3.852 1.15-3.852zm2.653 6.227h-2.992l-3.368-9.246h2.833l0.36 1.242h3.252l0.376-1.242h2.906l-3.367 9.246" fill="#181210"/>
  </g>
  <path d="m50.759 164.16h1.0152v-3.2617h-1.0152z" fill="#181210"/>
  <g transform="matrix(.35278 0 0 -.35278 53.488 162.26)">
   <path d="m0 0v1.872h3.488l0.734 2.014h-7.1v-9.246h2.878v3.34h2.072l0.736 2.02h-2.808" fill="#181210"/>
  </g>
  <g transform="matrix(.35278 0 0 -.35278 79.777 162.77)">
   <path d="m0 0c0-0.308-0.024-0.598-0.073-0.867-0.048-0.27-0.132-0.508-0.251-0.716-0.119-0.207-0.281-0.371-0.484-0.49s-0.464-0.179-0.781-0.179c-0.319 0-0.579 0.06-0.782 0.179-0.204 0.119-0.365 0.283-0.484 0.49-0.119 0.208-0.203 0.446-0.252 0.716-0.048 0.269-0.072 0.559-0.072 0.867v5.327h-2.465v-5.738c0-0.635 0.097-1.183 0.291-1.642 0.195-0.46 0.471-0.839 0.829-1.14 0.357-0.3 0.786-0.523 1.285-0.669 0.499-0.145 1.049-0.219 1.65-0.219 0.6 0 1.15 0.074 1.649 0.219 0.499 0.146 0.927 0.369 1.285 0.669 0.358 0.301 0.634 0.68 0.828 1.14 0.194 0.459 0.292 1.007 0.292 1.642v5.738h-2.465v-5.327" fill="#181210"/>
  </g>
  <g transform="matrix(.35278 0 0 -.35278 82.749 162.16)">
   <path d="m0 0c-0.08-0.164-0.188-0.296-0.324-0.398-0.137-0.101-0.299-0.172-0.484-0.212-0.186-0.04-0.384-0.059-0.596-0.059h-0.636v2.517h0.636c0.212 0 0.41-0.02 0.596-0.06 0.185-0.039 0.347-0.108 0.484-0.205 0.136-0.098 0.244-0.225 0.324-0.385 0.08-0.158 0.119-0.357 0.119-0.595 0-0.239-0.039-0.44-0.119-0.603zm1.577 2.861c-0.671 0.491-1.718 0.736-3.14 0.736h-2.942v-9.248h2.465v3.233h0.954c1.157 0 2.058 0.262 2.703 0.788 0.644 0.525 0.967 1.256 0.967 2.193 0 1.042-0.336 1.808-1.007 2.298" fill="#181210"/>
  </g>
  <g transform="matrix(.35278 0 0 -.35278 77.005 163.52)">
   <path d="m0 0c-0.397-0.092-0.799-0.139-1.205-0.139-0.451 0-0.866 0.066-1.246 0.199-0.38 0.132-0.704 0.324-0.973 0.576-0.27 0.252-0.482 0.559-0.637 0.921-0.154 0.362-0.231 0.769-0.231 1.219 0 0.433 0.068 0.833 0.205 1.199 0.137 0.367 0.331 0.682 0.583 0.947s0.554 0.473 0.907 0.623c0.354 0.15 0.751 0.226 1.193 0.226 0.424 0 0.832-0.053 1.226-0.16 0.393-0.105 0.788-0.269 1.186-0.49l0.198 2.001c-0.45 0.132-0.901 0.245-1.351 0.338-0.451 0.092-0.915 0.139-1.391 0.139-0.76 0-1.464-0.1-2.114-0.298-0.649-0.199-1.21-0.499-1.683-0.902-0.472-0.401-0.841-0.905-1.106-1.509-0.265-0.606-0.397-1.31-0.397-2.114 0-0.874 0.161-1.615 0.483-2.219 0.322-0.606 0.738-1.093 1.246-1.464s1.077-0.641 1.709-0.808c0.631-0.168 1.256-0.253 1.875-0.253 0.627 0 1.153 0.04 1.576 0.12 0.424 0.08 0.813 0.163 1.166 0.252l-0.119 1.934c-0.335-0.132-0.702-0.245-1.1-0.338" fill="#181210"/>
  </g>
  <g transform="matrix(.35278 0 0 -.35278 71.863 163.36)">
   <path d="m0 0c-0.105-0.142-0.247-0.25-0.424-0.325-0.176-0.075-0.375-0.123-0.596-0.145-0.221-0.023-0.442-0.033-0.662-0.033h-0.729v2.172h0.755c0.212 0 0.426-0.011 0.643-0.032 0.216-0.023 0.41-0.069 0.583-0.14 0.172-0.071 0.313-0.181 0.424-0.331 0.11-0.15 0.165-0.349 0.165-0.596 0-0.239-0.053-0.429-0.159-0.57zm-2.411 5.247h0.715c0.203 0 0.402-9e-3 0.597-0.027 0.194-0.017 0.366-0.057 0.516-0.119s0.272-0.155 0.365-0.278c0.092-0.124 0.139-0.291 0.139-0.503 0-0.195-0.049-0.356-0.146-0.484-0.097-0.129-0.223-0.227-0.378-0.298-0.154-0.071-0.329-0.122-0.523-0.153s-0.393-0.046-0.596-0.046h-0.689zm3.166-2.782v0.026c0.522 0.177 0.923 0.435 1.206 0.775s0.424 0.801 0.424 1.385c0 0.397-0.075 0.743-0.225 1.039s-0.36 0.539-0.629 0.73c-0.27 0.189-0.588 0.333-0.954 0.43-0.367 0.097-0.767 0.146-1.199 0.146h-4.254v-9.248h3.896c0.415 0 0.837 0.035 1.265 0.105 0.428 0.071 0.815 0.206 1.16 0.405 0.344 0.199 0.626 0.47 0.848 0.815 0.22 0.345 0.331 0.794 0.331 1.351 0 1.104-0.623 1.784-1.869 2.041" fill="#181210"/>
  </g>
  <g transform="matrix(.35278 0 0 -.35278 67.605 162.84)">
   <path d="m0 0 1.192 3.617h0.027l1.1-3.617zm2.729 5.525h-3.021l-3.511-9.248h2.504l0.729 1.974h3.471l0.69-1.974h2.702l-3.564 9.248" fill="#181210"/>
  </g>
  <g transform="matrix(.35278 0 0 -.35278 65.063 162.08)">
   <path d="m0 0c-0.115-0.142-0.258-0.248-0.43-0.319-0.173-0.071-0.367-0.113-0.583-0.125-0.217-0.014-0.422-0.02-0.616-0.02h-0.65v2.093h0.65c0.238 0 0.466-0.013 0.682-0.04 0.216-0.026 0.406-0.075 0.57-0.145 0.163-0.071 0.295-0.175 0.397-0.312s0.153-0.311 0.153-0.523c0-0.265-0.058-0.468-0.173-0.609zm2.173-3.353c-0.115 0.282-0.21 0.537-0.285 0.762s-0.156 0.424-0.245 0.596c-0.088 0.172-0.192 0.316-0.311 0.431-0.119 0.114-0.276 0.199-0.471 0.252v0.026c0.601 0.141 1.047 0.411 1.339 0.808 0.291 0.398 0.437 0.906 0.437 1.524 0 0.398-0.078 0.742-0.232 1.033-0.155 0.292-0.369 0.535-0.643 0.729-0.273 0.194-0.591 0.338-0.953 0.431-0.363 0.093-0.747 0.139-1.153 0.139h-4.399v-9.248h2.464v3.656h0.517c0.23 0 0.426-0.028 0.59-0.086 0.163-0.057 0.309-0.161 0.437-0.311s0.247-0.353 0.358-0.61c0.11-0.256 0.227-0.582 0.351-0.979l0.53-1.67h2.57l-0.901 2.517" fill="#181210"/>
  </g>
  <g transform="matrix(.35278 0 0 -.35278 60.852 162.84)">
   <path d="m0 0 1.193 3.617h0.026l1.099-3.617zm2.729 5.525h-3.021l-3.511-9.248h2.504l0.729 1.974h3.471l0.689-1.974h2.703l-3.564 9.248" fill="#181210"/>
  </g>
  <g transform="matrix(.35278 0 0 -.35278 77.612 168.97)">
   <path d="m0 0s-1.399 3e-3 -2.173 3e-3c0.613 0.555 4.441 4.09 4.441 5.822 0 2.118-1.566 3.31-3.56 3.31-2.26 0-3.666-1.566-3.826-2.901l-0.187-1.166 1.059-0.169c0.676-0.106 1.145 0.299 1.353 0.944 0.248 0.772 0.747 1.085 1.441 1.085 0.713 0 1.537-0.468 1.389-1.317-0.15-0.857-5.128-5.624-5.128-5.624 0-1.284 1.036-2.314 2.314-2.314h5.19c0 1.278-1.035 2.327-2.313 2.327" fill="#181210"/>
  </g>
  <g transform="matrix(.35278 0 0 -.35278 73.391 169.17)">
   <path d="m0 0c-2.099 0-3.656 1.574-3.656 3.709 0 2.172 1.557 3.764 3.656 3.764s3.674-1.592 3.674-3.764c0-2.135-1.575-3.709-3.674-3.709zm0 9.699c-3.276 0-6.009-2.696-6.009-5.99 0-3.293 2.733-5.936 6.009-5.936 3.239 0 6.026 2.643 6.026 5.936 0 3.294-2.787 5.99-6.026 5.99" fill="#181210"/>
  </g>
  <g transform="matrix(.35278 0 0 -.35278 70.22 168.97)">
   <path d="m0 0s-1.399 3e-3 -2.173 3e-3c0.613 0.555 4.441 4.09 4.441 5.822 0 2.118-1.566 3.31-3.559 3.31-2.26 0-3.667-1.566-3.827-2.901l-0.187-1.166 1.059-0.169c0.677-0.106 1.145 0.299 1.353 0.944 0.249 0.772 0.748 1.085 1.442 1.085 0.712 0 1.536-0.468 1.388-1.317-0.15-0.857-5.128-5.624-5.128-5.624 0-1.284 1.036-2.314 2.314-2.314h5.19c0 1.278-1.035 2.327-2.313 2.327" fill="#181210"/>
  </g>
  <g transform="matrix(.35278 0 0 -.35278 55.588 165.9)">
   <path d="m0 0-4.609-11.046h0.631c2.236 0 2.6 1.881 3.375 3.879l1.576 4.1 1.703-4.433c-1.602 0.895-2.774 0.518-3.265-1.258 0 0 2.199-0.251 4.028-1.657 0.794-0.611 0.853-0.631 1.937-0.631h1.259l-4.003 9.312c-0.452 1.052-1.487 1.734-2.632 1.734" fill="#181210"/>
  </g>
  <g transform="matrix(.35278 0 0 -.35278 60.472 165.9)">
   <path d="m0 0h-6.966c-1.221 0-2.211-0.99-2.211-2.211h3.025v-8.835h1e-3c1.321 0 2.393 1.071 2.393 2.392v6.443h2.782l0.976 2.211" fill="#181210"/>
  </g>
  <g transform="matrix(.35278 0 0 -.35278 61.062 165.9)">
   <path d="m0 0-4.609-11.046h0.631c2.237 0 2.6 1.881 3.375 3.879l1.576 4.1 1.703-4.433c-1.601 0.895-2.774 0.518-3.265-1.258 0 0 2.199-0.251 4.028-1.657 0.794-0.611 0.853-0.631 1.937-0.631h1.259l-4.002 9.312c-0.452 1.052-1.488 1.734-2.633 1.734" fill="#181210"/>
  </g>
  <g transform="matrix(.35278 0 0 -.35278 52.374 169.15)">
   <path d="m0 0c0.574-0.524 0.992-1.213 1.182-1.991 2.907 0.964 4.207 3.388 4.207 5.777 0 2.636-2.353 5.863-6.026 5.863-3.558 0-6.007-2.86-6.007-6.13 0-2.426 1.815-4.929 4.559-5.619 0.273-1.761 1.686-3.197 3.52-3.185l-0.846 3.258c-0.327 1.258-1.312 2.206-2.53 2.515-1.046 0.265-2.352 1.096-2.352 3.171 0 2.062 1.433 3.764 3.656 3.764 2.325 0 3.674-1.857 3.674-3.595 0-1.732-0.911-3.484-3.037-3.828" fill="#181210"/>
  </g>
  <g transform="matrix(.35278 0 0 -.35278 66.721 167.43)">
   <path d="m0 0c-0.023 2.419-2.032 4.351-4.451 4.351l-4.299 2e-3 -0.029-11.045c1.322 0 2.392 1.072 2.39 2.394l-0.01 6.48h1.878c1.132 0 2.104-0.867 2.166-1.997 0.072-1.288-0.758-2.27-2.02-2.27l-1.085-3e-3s-0.652-2.407 2.482-4.604h2.978s-2.293 1.6-2.662 2.77c1.579 0.633 2.679 2.111 2.662 3.922" fill="#181210"/>
  </g>
  <g transform="matrix(.35278 0 0 -.35278 80.156 167.17)">
   <path d="m0 0c-0.312-0.031-0.758-0.12-1.039-0.18l0.078 1.237 0.021 0.348 0.428-3e-3c0.774 0 2.174 3e-3 2.174 3e-3 0.966 0 1.789 0.6 2.136 1.445 0.1 0.231 0.161 0.488 0.175 0.767h-4.95c-1.277 0-2.312-1.029-2.314-2.311l-0.231-3.233h1.955c2.613 0.595 3.596-0.727 3.315-2.173-0.165-0.849-0.985-1.524-2.004-1.524-0.697 0-1.598 0.329-1.798 1.248-0.144 0.665-0.444 1.056-1.221 1.056l-0.948 0.011-0.011-1.024c-0.067-1.348 1.712-3.516 4.008-3.516 2.158 0 3.866 1.322 4.195 3.422 0.314 1.999-0.991 4.725-3.969 4.427" fill="#181210"/>
  </g>
  <g stroke-width=".78382">
   <path d="m68.975 142.86c1.7028-3.3218 3.7981-7.2697 4.7462-10.452 0.95108-3.1916-0.28382-8.8459-7.8529-9.3934-4.7341 0.12706-6.8837 2.1086-7.7653 4.2928-0.72159 1.5792-0.62497 3.2673-0.40457 4.4956 0.49213 2.7469 4.402 9.3481 4.4624 9.463 0.40457 0.81682 1.3858 3.2007 1.1111 5.8176-0.01208 0.11491-0.02717 0.23898-0.04529 0.36298 0 0-0.04831 0.30256-0.0634 0.37216-0.09058 0.45375-0.21436 0.91056-0.3623 1.3553-1.0386 3.1281-3.2637 5.9113-3.2577 6.3167 6e-3 0.25412 0.2989 0.65049 0.64913 0.99537 0.2989 0.29041 0.60988 0.52634 0.85443 0.62016 0 0 0.0785 0.0303 0.11473 0.0363 1.0084 0.20873 2.7656 0.36001 5.0722 0.36001 3.0614 0 6.3765-0.40539 6.3765-0.98322 0-0.53543-2.6357-3.3247-4.3597-8.501-0.12682-1.4218-0.16907-3.4094 0.70646-5.1218 6e-3 -0.0121 0.01207-0.0242 0.01811-0.0363zm-0.92083-6.9279c-1.265 2.4807-2.0531 4.2656-2.5391 5.5483-1.6093-2.6199-3.7499-5.3336-4.1967-6.0505-0.53742-0.8622-0.84235-1.6548-0.98727-2.3627-0.50722-2.8921 0.9752-4.4683 4.3869-5.6996 0.22946 0.0545 1.9775 0.49009 3.2879 1.7062 0.75474 0.70187 1.6062 1.8001 1.1171 4.0508-0.17213 0.78664-0.50423 1.7093-1.0658 2.8105z" fill="#dad8d8"/>
   <path d="m58.103 127.31c-0.72159 1.5792-0.62497 3.2673-0.40457 4.4956 0.49213 2.7469 4.402 9.3481 4.4624 9.463 0.40457 0.81682 1.3858 3.2007 1.1111 5.8176-0.01208 0.11491-0.02717 0.23898-0.04529 0.36298 0 0-0.04831 0.30256-0.0634 0.37216-0.09058 0.45375-0.21436 0.91056-0.3623 1.3553-1.0386 3.1281-3.2637 5.9113-3.2577 6.3167 6e-3 0.25412 0.2989 0.65049 0.64913 0.99537 0.2989 0.29041 0.60988 0.52634 0.85443 0.62016 0 0 0.0785 0.0303 0.11473 0.0363 1.0084 0.20873 2.7656 0.36001 5.0722 0.36001 3.0614 0 6.3765-0.40539 6.3765-0.98322 0-0.53543-2.6357-3.3247-4.3597-8.501-0.65817-1.9331-1.6243-4.8041-2.7324-6.5406-1.6092-2.6198-3.7498-5.3335-4.1967-6.0505-0.53742-0.8622-0.84235-1.6548-0.98727-2.3627 0 0-1.9715-5.5423 6.6452-8.1108l-1.108-1.9392c-4.7371 0.12706-6.8868 2.1086-7.7684 4.2928z" fill="url(#paint0_radial_5002_11731)"/>
   <path d="m58.103 127.31c-0.72159 1.5792-0.62497 3.2673-0.40457 4.4956 0.49213 2.7469 4.402 9.3481 4.4624 9.463 0.40457 0.81682 1.3858 3.2007 1.1111 5.8176-0.01208 0.11491-0.02717 0.23898-0.04529 0.36298 0 0-0.04831 0.30256-0.0634 0.37216-0.09058 0.45375-0.21436 0.91056-0.3623 1.3553-1.0386 3.1281-3.2637 5.9113-3.2577 6.3167 6e-3 0.25412 0.2989 0.65049 0.64913 0.99537 0.2989 0.29041 0.60988 0.52634 0.85443 0.62016 0 0 0.0785 0.0303 0.11473 0.0363 1.0084 0.20873 2.7656 0.36001 5.0722 0.36001 3.0614 0 6.3765-0.40539 6.3765-0.98322 0-0.53543-2.6357-3.3247-4.3597-8.501-0.65817-1.9331-1.6243-4.8041-2.7324-6.5406-1.6092-2.6198-3.7498-5.3335-4.1967-6.0505-0.53742-0.8622-0.84235-1.6548-0.98727-2.3627 0 0-1.9715-5.5423 6.6452-8.1108l-1.108-1.9392c-4.7371 0.12706-6.8868 2.1086-7.7684 4.2928z" fill="url(#paint1_radial_5002_11731)"/>
   <path d="m62.532 151.88c0.26871-1.2495 0.59478-3.1977 0.72763-4.6741-0.0091 0.0787-0.02113 0.16037-0.03321 0.24204 0 0-0.04831 0.30256-0.0634 0.37208-0.09058 0.45383-0.21437 0.91064-0.3623 1.3553-1.0386 3.1281-3.2637 5.9114-3.2577 6.3168 6e-3 0.25412 0.2989 0.65041 0.64913 0.99529 0.2989 0.29041 0.60987 0.52642 0.85141 0.62016-0.02717-0.0212-0.06945-0.0817-0.08152-0.11796-0.01208-0.0394-0.0151-0.0847 0-0.14219 0.10265-0.44772 1.2167-3.3338 1.567-4.9674z" fill="url(#paint2_radial_5002_11731)"/>
   <path d="m69.12 133.13c0.01811-0.0514 1.4311-4.2989-2.1466-8.1682l-2.2584 2.4111c0.22946 0.0545 1.9775 0.49009 3.2879 1.7062 0.75474 0.70186 1.6062 1.8 1.1171 4.0508z" fill="url(#paint3_radial_5002_11731)"/>
   <path d="m66.973 124.96c3.5989 3.8935 2.1466 8.1682 2.1466 8.1682-0.17205 0.78656-0.50415 1.7093-1.0658 2.8105-1.265 2.4807-2.0531 4.2656-2.5391 5.5483 1.108 1.7365 2.0741 4.6045 2.7323 6.5406-0.12682-1.4218-0.16907-3.4095 0.70653-5.1217 6e-3 -0.0121 0.01207-0.0242 0.01811-0.0364 0.29887-0.5808 4.1212-8.1591 3.3754-12.367-0.67934-3.8421-5.3771-5.5392-5.3771-5.5392z" fill="url(#paint4_radial_5002_11731)"/>
   <path d="m68.248 148.02c-0.10864-1.2373-0.157-2.9043 0.41064-4.4441 0 0-0.56764 0.87427-1.733-1.1224-0.65519-1.1224-0.75482-2.0904-0.72464-2.6471-0.27771 0.63536-0.50415 1.189-0.68529 1.673 1.108 1.7366 2.0741 4.6045 2.7323 6.5406z" fill="url(#paint5_radial_5002_11731)"/>
   <path d="m69.325 129.76-0.0272-6e-3 0.01513-0.0605c-6e-3 -0.0393-0.01207-0.0787-0.01811-0.11799l-0.22644-0.0605 0.06035-0.22689-0.27175-0.0726 0.06647-0.2511-0.10268-0.0272 0.04233-0.16639 0.05432 0.0151 0.05738-0.2148-0.0544-0.0151 0.04233-0.16638 0.05432 0.0151c-0.01811-0.0575-0.03621-0.11496-0.05738-0.17244l-0.54946-0.14521 0.04225-0.16639-0.27175-0.0726 0.06043-0.2269-0.27175-0.0726 0.06639-0.25109-0.1026-0.0272 0.04225-0.16639 0.05432 0.0151 0.05738-0.21479-0.05432-0.0151 0.04225-0.16639 0.10268 0.0272 0.03919-0.14823c-0.02414-0.0423-0.04828-0.0817-0.07548-0.12403l-0.03018 0.11798-0.59476-0.15732 0.04225-0.16638-0.27167-0.0726 0.06035-0.2269-0.27175-0.0726 0.06647-0.2511-0.10268-0.0272 0.04225-0.16639 0.0544 0.0151 0.05738-0.21479-0.0544-0.0151 0.02414-0.0938c-0.06035-0.0696-0.12376-0.13916-0.18718-0.20875l-0.77292 0.8259 0.157 0.0423 0.0544-0.20571 0.59476 0.15731-0.05432 0.20572 0.25356 0.0666-0.06035 0.22689 0.28382 0.0756-0.0544 0.20269 0.09962 0.0272-0.04225 0.16639-0.05432-0.0151-0.05738 0.21479 0.05432 0.0151-0.04225 0.16639-0.09962-0.0272-0.06647 0.2511-0.28374-0.0756-0.06043 0.2269-0.25356-0.0666-0.04233 0.16639-0.59476-0.15731 0.04225-0.1664-0.27167-0.0726 0.06035-0.22689-0.27175-0.0726 0.06647-0.2511-0.10268-0.0272 0.01811-0.0726-0.18113 0.19362 0.12681 0.0333-0.05436 0.20572 0.2536 0.0666-0.06035 0.22689 0.28382 0.0756-0.0544 0.20268 0.09962 0.0272-0.03919 0.14824c0.19321 0.0787 0.40453 0.17546 0.62188 0.28438l0.02422-0.0968-0.0544-0.0151 0.04233-0.16639 0.1026 0.0272 0.0544-0.2027 0.27167 0.0726 0.06043-0.22689 0.27167 0.0726 0.0544-0.20572 0.59476 0.15732-0.05432 0.20572 0.25356 0.0666-0.06035 0.2269 0.28382 0.0756-0.0544 0.20269 0.09962 0.0272-0.04225 0.16639-0.05432-0.0151-0.05738 0.2148 0.05432 0.0151-0.04225 0.16639-0.09962-0.0272-0.06647 0.2511-0.17205-0.0454c0.03927 0.0363 0.08152 0.0726 0.12079 0.10891 9e-3 9e-3 0.01811 0.0181 0.02712 0.0272l0.10872 0.0272 0.05432-0.20572 0.59484 0.15732-0.0544 0.20571 0.25364 0.0666-0.06043 0.2269 0.28382 0.0756-0.05432 0.20269 0.09962 0.0272-0.04225 0.16639-0.0544-0.0151-0.0573 0.2148 0.05432 0.0151-0.04225 0.16639-0.0997-0.0272-0.01207 0.0514c0.02422 0.0575 0.0453 0.11497 0.06647 0.17547l0.01207-0.0454 0.32301 0.0847c-9e-3 -0.28438-0.03621-0.58992-0.08152-0.90758zm-0.12682 2.9406 0.03018 9e-3c0.01811-0.0878 0.03927-0.18757 0.06043-0.2995l-0.05134-0.0122c-0.0091 0.0999-0.02414 0.19972-0.03927 0.30561z" fill="url(#paint6_radial_5002_11731)"/>
   <path d="m72.445 131.93c3e-3 -0.12102 3e-3 -0.24196 0-0.36001l-0.22041-0.0574 0.06639-0.25114-0.1026-0.0272 0.04225-0.16641 0.05432 0.0151 0.05737-0.21477-0.05432-0.0151 0.04225-0.1664 0.05134 0.0121c-6e-3 -0.0484-0.01513-0.0968-0.02116-0.14522l-0.58873-0.15428 0.04225-0.16639-0.27167-0.0726 0.06035-0.2269-0.27175-0.0726 0.06647-0.2511-0.10268-0.0272 0.04225-0.16639 0.0544 0.0151 0.0573-0.21479-0.05432-0.0151 0.04225-0.16639 0.10268 0.0272 0.05432-0.20269 0.22347 0.0575c-0.02414-0.0454-0.04836-0.0938-0.07548-0.13916l-0.21743-0.0575-0.04225 0.16639-0.59476-0.15732 0.04225-0.16639-0.27175-0.0726 0.06043-0.22689-0.27175-0.0726 0.06647-0.2511-0.10268-0.0272 0.04225-0.16639 0.0544 0.0151 0.0573-0.2148-0.05432-0.0151 0.04225-0.16638 0.10268 0.0272 0.01513-0.0514c-0.03629-0.0363-0.0725-0.0756-0.10872-0.11194l-0.56458-0.14823 0.04225-0.1664-0.27175-0.0726 0.06043-0.22689-0.27175-0.0726 0.03927-0.15126c-0.21438-0.16035-0.42569-0.30859-0.63403-0.44169l-0.04225 0.15731-0.0997-0.0272-0.06639 0.2511-0.28382-0.0756-0.06035 0.2269-0.25364-0.0666-0.01207 0.0484c0.02414 0.0423 0.05134 0.0817 0.07548 0.12403l0.01513-0.0545 0.27167 0.0726 0.06043-0.2269 0.27175 0.0726 0.05432-0.20572 0.59476 0.15731-0.05432 0.20572 0.25357 0.0666-0.06035 0.2269 0.28382 0.0756-0.0544 0.20268 0.0997 0.0272-0.04233 0.16639-0.05432-0.0151-0.05737 0.2148 0.05432 0.0151-0.04225 0.16639-0.09962-0.0272-0.06639 0.25109-0.28382-0.0756-0.06043 0.2269-0.25356-0.0666-0.04225 0.16639-0.0453-0.0121c0.02108 0.0575 0.03927 0.11496 0.05738 0.17244l0.04523 0.0121 0.0544-0.20269 0.27175 0.0726 0.06035-0.2269 0.27175 0.0726 0.05432-0.20572 0.59476 0.15731-0.05432 0.20572 0.25356 0.0666-0.06035 0.22689 0.28382 0.0756-0.05432 0.2027 0.09962 0.0272-0.04233 0.16638-0.05432-0.0151-0.05738 0.21479 0.0544 0.0151-0.04233 0.16639-0.09962-0.0272-0.06639 0.2511-0.28382-0.0756-0.06035 0.22689-0.25364-0.0666-0.04225 0.16639-0.56764-0.14823c0.0453 0.31765 0.06945 0.62017 0.08152 0.90757l0.26869 0.0696-0.05432 0.20569 0.25364 0.0666-0.06043 0.22683 0.28382 0.0756-0.05432 0.2027 0.09962 0.0272-0.04233 0.1664-0.05432-0.0151-0.05738 0.21485 0.0544 0.0151-0.04233 0.16632-0.09962-0.0272-0.06639 0.25114-0.28382-0.0756-0.06035 0.22684-0.20536-0.0544c-0.02108 0.11193-0.03919 0.21171-0.06035 0.2995l0.03323 9e-3 0.05432-0.2027 0.27175 0.0726 0.06035-0.22692 0.27175 0.0726 0.05432-0.20567 0.59476 0.15731-0.05432 0.20567 0.25364 0.0666-0.06043 0.22684 0.28382 0.0756-0.05432 0.2027 0.09962 0.0273-0.04225 0.16632-0.0544-0.0151-0.05737 0.21485 0.0544 0.0151-0.04233 0.1664-0.09962-0.0273-0.06639 0.25114-0.28382-0.0756-0.06035 0.22692-0.25364-0.0666-0.04225 0.16641-0.59476-0.15732 0.04225-0.1664-0.27175-0.0726 0.06043-0.22692s-0.21437-0.0544-0.30193-0.0786c-0.0091 0.0363-0.02116 0.0726-0.03026 0.10887l0.1842 0.0484-0.06035 0.22691 0.28382 0.0756-0.0544 0.2027 0.09962 0.0273-0.04225 0.1664-0.05432-0.0151-0.05738 0.21477 0.05432 0.0151-0.04225 0.1664-0.09962-0.0273-0.06647 0.25114-0.28374-0.0756-0.06043 0.22692-0.25357-0.0666-0.04233 0.16633-0.09053-0.0241c-0.10566 0.23898-0.22644 0.484-0.35624 0.74117-0.0031 9e-3 -0.0091 0.0151-0.01215 0.0242l0.24761 0.0665-0.05432 0.20567 0.25357 0.0666-0.06035 0.22692 0.28382 0.0756-0.0544 0.2027 0.09962 0.0272-0.04225 0.1664-0.05432-0.0151-0.05738 0.21485 0.05432 0.0151-0.07846 0.29949 0.6008 0.16029-0.05432 0.20576 0.25356 0.0665-0.06035 0.22692 0.28382 0.0756-0.0544 0.20261 0.0997 0.0273-0.04233 0.16641-0.05432-0.0151-0.05738 0.21476 0.05432 0.0151-0.08755 0.31768 0.60385 0.16029-0.05432 0.20576 0.25356 0.0665-0.06035 0.22692 0.13286 0.0363c0.01513-0.0363 0.03018-0.0726 0.0453-0.10895l-0.03018-9e-3 0.06035-0.22691-0.27175-0.0726 0.06647-0.25114-0.10268-0.0272 0.04225-0.1664 0.0544 0.0151 0.0573-0.21485-0.05432-0.0151 0.04225-0.16632 0.10268 0.0272 0.05432-0.2027 0.27175 0.0726 0.06035-0.22683 0.19932 0.0514c0.03919-0.10895 0.08152-0.22088 0.12071-0.33281l-0.06639-0.0181-0.06639 0.25106-0.28382-0.0756-0.06043 0.22691-0.25356-0.0665-0.04225 0.1664-0.59484-0.15731 0.04233-0.16641-0.27175-0.0727 0.06035-0.22683-0.27167-0.0727 0.06639-0.25106-0.10268-0.0272 0.04233-0.1664 0.05432 0.0151 0.05738-0.21484-0.0544-0.0151 0.04233-0.16632 0.1026 0.0272 0.0544-0.20269 0.27167 0.0726 0.06043-0.22684 0.27175 0.0726 0.05432-0.20576 0.59476 0.15732-0.05432 0.20575 0.25356 0.0665-0.06035 0.22692 0.28382 0.0756-0.0544 0.20269 0.11177 0.0303c0.03315-0.0938 0.06639-0.19063 0.09657-0.28743l-0.29589-0.0787 0.06043-0.22684-0.27175-0.0727 0.06639-0.25106-0.1026-0.0273 0.04225-0.16633 0.05432 0.0151 0.05738-0.21485-0.05432-0.0151 0.04225-0.16633 0.10268 0.0272 0.05432-0.2027 0.27175 0.0726 0.06035-0.22683 0.27175 0.0726 0.05432-0.20575 0.08755 0.0242c0.07548-0.27834 0.14493-0.55361 0.20834-0.83195l-0.07846-0.0212 0.04225-0.16641-0.27175-0.0726 0.06043-0.22691-0.27175-0.0726 0.06639-0.25114-0.1026-0.0272 0.04225-0.1664 0.05432 0.0151 0.05738-0.21476-0.05432-0.0151 0.04225-0.1664 0.10268 0.0272 0.05432-0.20269 0.27175 0.0727 0.06035-0.22692 0.22644 0.0605c0.0031-0.0302 0.0091-0.0605 0.01207-0.0938l-0.3321-0.0877-0.06035 0.22692-0.25364-0.0666-0.04225 0.16633-0.59476-0.15731 0.04225-0.16633-0.27175-0.0727 0.06043-0.22692-0.27175-0.0726 0.06639-0.25105-0.1026-0.0273 0.04225-0.16641 0.05432 0.0151 0.05738-0.21476-0.05432-0.0151 0.04225-0.16641 0.10268 0.0273 0.05432-0.2027 0.27175 0.0726 0.06035-0.22692 0.27175 0.0727 0.05432-0.20575 0.59476 0.15731-0.05432 0.20575 0.25364 0.0665-0.06043 0.22684 0.15096 0.0393zm-2.1437 4.0751-0.05432-0.0151-0.05737 0.21477 0.05432 0.0151-0.04225 0.1664-0.09962-0.0272-0.06639 0.25106-0.28382-0.0756-0.06043 0.22692-0.25356-0.0666-0.04225 0.16641-0.59484-0.15739 0.04233-0.16633-0.27175-0.0727 0.06035-0.22684-0.27167-0.0727 0.06639-0.25105-0.10268-0.0273 0.04233-0.16633 0.05432 0.0151 0.05737-0.21484-0.0544-0.0151 0.04233-0.16641 0.1026 0.0273 0.0544-0.20269 0.27167 0.0726 0.06043-0.22692 0.27167 0.0727 0.0544-0.20575 0.59476 0.15731-0.05432 0.20575 0.25356 0.0666-0.06035 0.22692 0.28382 0.0756-0.0544 0.2027 0.0997 0.0272zm1.1564-1.9604-0.05432 0.20576 0.25356 0.0665-0.06035 0.22692 0.28382 0.0756-0.0544 0.20261 0.09962 0.0273-0.04225 0.16641-0.05432-0.0151-0.05738 0.21476 0.05432 0.0151-0.04225 0.16641-0.09962-0.0273-0.06639 0.25113-0.28382-0.0756-0.06043 0.22691-0.25357-0.0665-0.04233 0.16632-0.59476-0.15731 0.04233-0.16633-0.27175-0.0727 0.06035-0.22683-0.27175-0.0727 0.06647-0.25106-0.10268-0.0273 0.04233-0.16632 0.05432 0.0151 0.05738-0.21484-0.0544-0.0151 0.04233-0.1664 0.1026 0.0273 0.0544-0.20269 0.27167 0.0726 0.06043-0.22692 0.27167 0.0727 0.0544-0.20575zm0.23554-3.3459-0.0544-0.0151-0.05738 0.21481 0.0544 0.0151-0.04233 0.1664-0.09962-0.0273-0.06639 0.25114-0.28382-0.0756-0.06035 0.22692-0.25364-0.0666-0.04225 0.16641-0.59476-0.15732 0.04225-0.1664-0.27175-0.0726 0.06035-0.22692-0.27167-0.0726 0.06639-0.25109-0.1026-0.0272 0.04225-0.16639 0.05432 0.0151 0.05738-0.2148-0.05432-0.0151 0.04225-0.16639 0.10268 0.0272 0.05432-0.2027 0.27175 0.0726 0.06035-0.2269 0.27175 0.0726 0.05432-0.20571 0.59476 0.15731-0.05432 0.20571 0.25364 0.0666-0.06043 0.2269 0.28382 0.0756-0.05432 0.20269 0.09962 0.0272zm-2.3973-1.1224c6e-3 0.0393 0.01215 0.0787 0.01819 0.11798l0.02712-0.10589z" fill="url(#paint7_radial_5002_11731)"/>
   <path d="m64.718 127.37 2.2584-2.4111c-8.6168 2.5684-6.6453 8.1107-6.6453 8.1107-0.50722-2.8921 0.9752-4.4683 4.3869-5.6996z" fill="url(#paint8_radial_5002_11731)"/>
   <path d="m64.875 148.83c-0.73366-1.5096-1.2681-0.64438-1.7209-0.64438-0.0151 0.12706-0.03322 0.25411-0.04831 0.38117 0.70649 0.78656 1.096-0.67157 1.7692 0.26626zm-1.2349 5.1369v-3e-3 3e-3c-0.64611-1.3644 1.108-1.0921 0.5193-2.7833 1.1262 1.195 1.3586-0.75325 2.2885 0.0182-1.256-1.6851-1.7451 0.65951-2.5271-0.46292 0.47099 1.2858-1.256 1.0377-0.57667 2.747-0.50118-0.60205-0.84235-0.55965-1.1262-0.40234-0.0936 0.31463-0.19625 0.64132-0.30494 0.96504 0.06643 0.0272 0.13587 0.0454 0.20833 0.0575 0.68536-9e-3 0.77291-1.0285 1.5217-0.13309zm-0.87556-1.564v-3e-3 3e-3c-0.48005-1.3886 1.1352-0.93181 0.68837-2.6532 0.98727 1.3221 1.3345-0.5899 2.1708 0.32975-1.1231-1.8817-1.7028 0.40845-2.367-0.79863 0.19323 0.6867-0.15096 0.89551-0.44986 1.192-0.09058 0.51732-0.18719 1.0013-0.27475 1.4098v9e-3 9e-3s0-3e-3 -3e-3 -6e-3c-0.01208 0.0575-0.02415 0.11499-0.03925 0.1755 0.08454 0.0635 0.1721 0.16938 0.27474 0.32975zm1.4552-4.907c-0.32607-0.84401-0.631-0.99835-0.90575-0.97413-6e-3 0.18757-0.02114 0.37819-0.03925 0.56874-3e-3 0.0393-0.0091 0.0787-0.0151 0.12102 0 0.0272-6e-3 0.0545-0.0091 0.0847 0.31702-0.11804 0.61591-0.41448 0.96915 0.19964zm-0.91179-1.794c0.12379 0.0273 0.24456 0.13615 0.36834 0.40845-0.12982-0.44474-0.26568-0.70795-0.40155-0.85617 0.0151 0.14822 0.02416 0.29644 0.03321 0.44772zm7.0679 8.4768c-0.25357-0.22385-1.4975-0.88642-2.0168 0.0363-0.46198 0.8198-0.98432 0.68373-1.3225 0.44772 0.99639 1.1375-0.83328 1.4642 0.03018 2.8377 0.12988-3e-3 0.25968-6e-3 0.39254-0.0121 6e-3 -0.72002 1.0839-1.1798 0.03927-2.4444 1.8689 0.85013 1.413-1.3795 2.8772-0.86518zm-5.5704 1.3039v-3e-3c-0.90273-1.3584 1.0144-1.2313 0.19927-2.9557 1.3737 1.0831 1.3647-0.99529 2.527-0.27222-1.5941-1.5944-1.8718 0.87733-2.8108-0.14219 0.59176 1.2797-1.2741 1.201-0.314 2.9042-1.5156-1.3553-1.5066 1.0558-2.4908-0.28132 0.19021 0.5294 0.66422 1.0861 1.2439 1.0891 0.75782-0.10895 0.67932-1.1799 1.6455-0.33884zm6.8445-0.56576c-0.02712-0.0423-0.05737-0.0877-0.08755-0.13004-0.53441-0.20575-1.2409-0.0727-1.573 0.29338-0.45595 0.50525-0.54648 1.1678-1.4492 0.75027 0.64304 0.62925 0.2596 1.074 0.03315 1.6064 0.33218-0.0212 0.65519-0.0484 0.96621-0.0786 0.04523-0.33281-0.05134-0.711-0.4982-1.1829 1.7994 0.63835 1.422-1.325 2.6085-1.2554zm0.38344 0.57485c-0.79706 0.44771-0.79103 1.7909-1.9021 1.3734 0.14798 0.13317 0.24455 0.26321 0.30193 0.39027 0.52837-0.0726 0.9873-0.15732 1.3496-0.25106 0.25364-0.26924 0.38948-0.67165 0.58575-0.98926-0.09061-0.14524-0.20536-0.32066-0.33814-0.52037zm-5.9206-1.679c1.6968 0.9862 1.4009-1.1981 2.7717-0.55063-1.9836-1.5368-1.9504 1.1163-3.1581 0.14524 0.87255 1.2736-1.2047 1.3613 0.04225 3.0737-1.8115-1.2344-1.5035 1.2917-2.7414 0.0332 0.22644 0.43564 0.6612 0.85311 1.1473 0.94693 0.10868 6e-3 0.2204 9e-3 0.33211 0.0151 0.03925-3e-3 0.07547-0.0122 0.11473-0.0212 0.68536-0.38728 0.59478-1.2192 1.6213-0.53244v-3e-3h3e-3c-1.1141-1.3341 1.0266-1.4037-0.12682-3.113z" fill="url(#paint9_radial_5002_11731)"/>
   <path d="m61.898 151.34c-0.17511 0.35099-0.35324 0.68976-0.5344 1.0135 0.48609 0.0666 0.71555-0.59593 1.1231-0.27833 0.0151-0.0605 0.02717-0.11796 0.03925-0.17542-0.23852-0.36604-0.44382-0.51732-0.62799-0.55972zm-0.80008 1.5944c0.10265 0.44168 0.38947 0.93478 0.81216 1.1072 0.10567-0.32371 0.20832-0.65041 0.30494-0.96503-0.39552 0.21782-0.67932 0.65347-1.1171-0.14219zm1.9202-4.4744c0.03019 0.0393 0.05737 0.0726 0.08756 0.10582 0.01811-0.12706 0.03321-0.25411 0.04831-0.38117-0.02113 0-0.04529 0-0.06642-6e-3 -0.02114 0.0938-0.04529 0.18757-0.06945 0.28139zm-0.4891 3.4337v-9e-3c0.08755-0.40844 0.18115-0.89245 0.27474-1.4098-0.26871 0.26618-0.50119 0.60503-0.27777 1.4218zm0.71857-4.5984c0-0.0273 6e-3 -0.0574 0.0091-0.0847-3e-3 0.0273-6e-3 0.0575-0.0091 0.0847z" fill="url(#paint10_radial_5002_11731)"/>
   <path d="m58.103 127.31c-0.72159 1.5792-0.62497 3.2673-0.40457 4.4956 0.49213 2.7469 4.402 9.3481 4.4624 9.463 0.40457 0.81682 1.3858 3.2007 1.1111 5.8176-0.01208 0.11491-0.02717 0.23898-0.04529 0.36298 0 0-0.04831 0.30256-0.0634 0.37216-0.09058 0.45375-0.21436 0.91056-0.3623 1.3553-1.0386 3.1281-3.2637 5.9113-3.2577 6.3167 6e-3 0.25412 0.2989 0.65049 0.64913 0.99537 0.2989 0.29041 0.60988 0.52634 0.85443 0.62016 0 0 0.0785 0.0303 0.11473 0.0363 1.0084 0.20873 2.7656 0.36001 5.0722 0.36001 3.0614 0 6.3765-0.40539 6.3765-0.98322 0-0.53543-2.6357-3.3247-4.3597-8.501-0.65817-1.9331-1.6243-4.8041-2.7324-6.5406-1.6092-2.6198-3.7498-5.3335-4.1967-6.0505-0.53742-0.8622-0.84235-1.6548-0.98727-2.3627 0 0-1.9715-5.5423 6.6452-8.1108l-1.108-1.9392c-4.7371 0.12706-6.8868 2.1086-7.7684 4.2928z" fill="url(#paint11_radial_5002_11731)"/>
   <path d="m58.103 127.31c-0.72159 1.5792-0.62497 3.2673-0.40457 4.4956 0.49213 2.7469 4.402 9.3481 4.4624 9.463 0.40457 0.81682 1.3858 3.2007 1.1111 5.8176-0.01208 0.11491-0.02717 0.23898-0.04529 0.36298 0 0-0.04831 0.30256-0.0634 0.37216-0.09058 0.45375-0.21436 0.91056-0.3623 1.3553-1.0386 3.1281-3.2637 5.9113-3.2577 6.3167 6e-3 0.25412 0.2989 0.65049 0.64913 0.99537 0.2989 0.29041 0.60988 0.52634 0.85443 0.62016 0 0 0.0785 0.0303 0.11473 0.0363 1.0084 0.20873 2.7656 0.36001 5.0722 0.36001 3.0614 0 6.3765-0.40539 6.3765-0.98322 0-0.53543-2.6357-3.3247-4.3597-8.501-0.65817-1.9331-1.6243-4.8041-2.7324-6.5406-1.6092-2.6198-3.7498-5.3335-4.1967-6.0505-0.53742-0.8622-0.84235-1.6548-0.98727-2.3627 0 0-1.9715-5.5423 6.6452-8.1108l-1.108-1.9392c-4.7371 0.12706-6.8868 2.1086-7.7684 4.2928z" fill="url(#paint12_radial_5002_11731)"/>
   <path d="m62.726 137.39c-0.67328-0.92569-1.2077-1.6397-1.4069-1.9603-0.53742-0.8622-0.84235-1.6549-0.98727-2.3627 0 0-1.5096-4.2475 3.8917-7.0277-5.661 2.6774-4.5922 6.8371-3.1279 9.1635 0.21738 0.34488 0.85443 1.1526 1.6304 2.1872z" fill="#f2f2f2"/>
   <path d="m65.868 123.02 1.108 1.9392s4.6979 1.6972 5.3771 5.5392c0.74275 4.2051-3.0766 11.78-3.3754 12.364 1.7028-3.3217 3.7981-7.2697 4.7462-10.449 0.95101-3.1916-0.28382-8.8459-7.8529-9.3934z" fill="url(#paint13_radial_5002_11731)"/>
   <path d="m65.868 123.02 1.108 1.9392s4.6979 1.6972 5.3771 5.5392c0.74275 4.2051-3.0766 11.78-3.3754 12.364 1.7028-3.3217 3.7981-7.2697 4.7462-10.449 0.95101-3.1916-0.28382-8.8459-7.8529-9.3934z" fill="url(#paint14_radial_5002_11731)"/>
   <path d="m65.868 123.02 1.108 1.9392s4.6979 1.6972 5.3771 5.5392c0.74275 4.2051-3.0766 11.78-3.3754 12.364 1.7028-3.3217 3.7981-7.2697 4.7462-10.449 0.95101-3.1916-0.28382-8.8459-7.8529-9.3934z" fill="url(#paint15_radial_5002_11731)"/>
   <path d="m71.871 153.06-0.12384-0.21783 0.08755-0.0514 0.30796 0.53543-0.08755 0.0515-0.12376-0.21783-0.61287 0.35695-0.06043-0.10283z" fill="#181210"/>
   <path d="m72.203 153.43 0.09657 0.1664-0.45587 0.55667 0.70646-0.12102 0.09664 0.16938-0.70042 0.40539-0.06043-0.10284 0.60691-0.35091-0.74275 0.11796-0.05432-0.0999 0.47092-0.58386-0.60683 0.35099-0.05738-0.10291z" fill="#181210"/>
  </g>
 </g>
</svg>
